<?xml version="1.0" encoding="UTF-8" standalone="no"?>
<!DOCTYPE svg PUBLIC "-//W3C//DTD SVG 1.1//EN" "http://www.w3.org/Graphics/SVG/1.1/DTD/svg11.dtd">
<svg width="100%" height="100%" viewBox="0 0 2481 2481" version="1.1" xmlns="http://www.w3.org/2000/svg" xmlns:xlink="http://www.w3.org/1999/xlink" xml:space="preserve" xmlns:serif="http://www.serif.com/" style="fill-rule:evenodd;clip-rule:evenodd;stroke-linecap:round;stroke-linejoin:round;stroke-miterlimit:1.5;">
    <g id="Layer1" transform="matrix(0.978382,0,0,0.98118,-484.771,31.6263)">
        <path d="M954.231,1301.71C954.231,1301.71 1007.57,968.556 1352.8,1144.68C1352.8,1144.68 1365.61,1154.29 1389.17,1134.18C1412.74,1114.06 1460.43,1071.79 1574.4,1055.65C1574.4,1055.65 1598.56,1055.36 1629.73,1012.3C1660.91,969.252 1718.28,936.069 1794.61,951.254C1794.61,951.254 1795.99,885.934 1858.88,833.052C1858.88,833.052 1888.61,805.824 1942.97,809.946C1942.97,809.946 1970.68,805.951 1992.09,758.375C2013.5,710.8 2076.77,663.837 2151.32,679.829C2151.32,679.829 2198.01,693.08 2226.97,605.413C2255.93,517.746 2384.18,459.824 2496.03,555.376C2496.03,555.376 2512.23,580.638 2551.97,550.609C2591.71,520.58 2686.74,397.633 2822.38,627.053C2822.38,627.053 2905.35,748.43 2866.94,886.959C2828.53,1025.49 2764.5,956.832 2752.28,1004.62C2740.06,1052.41 2643.88,1081.14 2643.88,1081.14C2643.88,1081.14 2531.6,1148.15 2526.55,1282.9C2521.51,1417.65 2278.87,1457.08 2204.6,1444.68C2130.33,1432.29 2142.12,1527.46 2055.16,1564.57C1968.19,1601.68 1951.41,1574.8 1897.32,1631.47C1897.32,1631.47 1807.84,1745.02 1694.32,1772.18C1694.32,1772.18 1640.24,1802.26 1570.97,1884.05C1501.71,1965.84 1270.49,1956.1 1242.98,1912.27C1242.98,1912.27 1220.11,1882.13 1186.35,1916.87C1152.6,1951.61 1119.06,1989.29 1030.34,1973.77C1030.34,1973.77 969.592,1990.77 927.111,1958.72C884.63,1926.67 769.76,1963.25 785.227,1828.68C785.227,1828.68 684.001,1849.98 654.321,1750.5C624.642,1651.03 608.272,1585.53 742.801,1561.74C742.801,1561.74 808.91,1541.19 791.656,1467.9C774.402,1394.6 954.231,1301.71 954.231,1301.71Z" style="fill:rgb(134,77,58);stroke:rgb(70,25,9);stroke-width:40.4px;"/>
        <path d="M2327.44,1206.61L2341.19,1242.66C2341.19,1242.66 2347.58,1265.05 2380.93,1246.97C2414.27,1228.89 2400.35,1203.95 2400.35,1203.95L2362.25,1168.4L2320.64,1176.28L2327.44,1206.61Z" style="fill:rgb(103,46,26);stroke:rgb(103,46,26);stroke-width:38.27px;"/>
        <path d="M2506.28,1103.05C2506.28,1103.05 2481.88,1122.19 2485.75,1155.35C2489.63,1188.51 2514.02,1171.87 2514.02,1171.87C2514.02,1171.87 2544.4,1142.07 2543.7,1117.19C2542.99,1092.31 2534.34,1087.43 2534.34,1087.43L2506.28,1103.05Z" style="fill:rgb(103,46,26);stroke:rgb(103,46,26);stroke-width:38.27px;"/>
        <path d="M2456.84,1273.44C2456.84,1273.44 2440.73,1275.41 2448.42,1301.22C2456.1,1327.03 2473.64,1326.44 2473.64,1326.44L2493.89,1289.62L2487.49,1263.56L2456.84,1273.44" style="fill:rgb(103,46,26);stroke:rgb(103,46,26);stroke-width:38.27px;"/>
        <path d="M1308.62,1797.82C1308.62,1797.82 1292.4,1815.44 1306.11,1838.58C1319.82,1861.71 1375.29,1879.43 1393.39,1849.7C1411.5,1819.98 1413.97,1801.29 1402.18,1786.97C1390.4,1772.65 1356.8,1765.09 1341.14,1774.31C1325.49,1783.53 1308.62,1797.82 1308.62,1797.82Z" style="fill:rgb(103,46,26);stroke:rgb(103,46,26);stroke-width:38.27px;"/>
        <path d="M1493.49,1777.86C1493.49,1777.86 1476.44,1786.89 1482.38,1807.32C1488.32,1827.76 1514.94,1837.11 1534.76,1837.74C1554.58,1838.36 1565.15,1815.45 1563.06,1802C1560.96,1788.55 1543.01,1778.05 1530.4,1774.29C1517.79,1770.52 1493.49,1777.86 1493.49,1777.86Z" style="fill:rgb(103,46,26);stroke:rgb(103,46,26);stroke-width:38.27px;"/>
        <path d="M1440.81,1859.76C1440.81,1859.76 1431.97,1866.16 1431.96,1876.43C1431.96,1886.71 1433.4,1892.13 1444.99,1895.01C1456.58,1897.88 1467.99,1884.04 1467.99,1884.04L1464.22,1857.33L1440.81,1859.76Z" style="fill:rgb(103,46,26);stroke:rgb(103,46,26);stroke-width:38.27px;"/>
        <path d="M979.767,1883.4L992.656,1909.01C992.656,1909.01 1014.21,1917.27 1032.5,1916C1050.79,1914.74 1064.87,1911.37 1064.87,1911.37C1064.87,1911.37 1079.86,1900.09 1080.97,1882.67C1082.08,1865.25 1044.86,1854.45 1044.86,1854.45L996.382,1859.02L979.767,1883.4" style="fill:rgb(103,46,26);stroke:rgb(103,46,26);stroke-width:38.27px;"/>
        <path d="M1152.78,1836.46C1152.78,1836.46 1141.04,1844.61 1148.31,1854.89C1155.57,1865.17 1160.18,1871.64 1169.52,1862.65C1178.86,1853.66 1180.81,1855.11 1178.64,1844.24C1176.48,1833.36 1152.78,1836.46 1152.78,1836.46Z" style="fill:rgb(103,46,26);stroke:rgb(103,46,26);stroke-width:38.27px;"/>
        <path d="M2674.53,875.098C2674.53,875.098 2663.97,877.717 2669.05,905.665C2674.13,933.613 2667.81,933.296 2691.85,935.58C2715.9,937.863 2719.27,937.304 2724.97,905.156C2730.68,873.008 2735.74,874.516 2719.46,863.86C2703.18,853.203 2674.53,875.098 2674.53,875.098Z" style="fill:rgb(103,46,26);stroke:rgb(103,46,26);stroke-width:38.27px;"/>
        <path d="M835.271,1681.56C835.271,1681.56 822.604,1707.06 855.214,1711.86C887.824,1716.65 895.436,1719.69 902.482,1693.09C909.529,1666.5 928.36,1665.06 901.817,1651.07C875.274,1637.09 842.275,1674.27 842.275,1674.27" style="fill:rgb(103,46,26);stroke:rgb(103,46,26);stroke-width:38.27px;"/>
        <path d="M1692.72,1522.58C1692.72,1522.58 1729.01,1493.35 1732.02,1522.74C1735.03,1552.13 1755.76,1556.29 1731.19,1563.63C1706.62,1570.97 1685.04,1578.24 1678.95,1565.01C1672.86,1551.79 1692.72,1522.58 1692.72,1522.58Z" style="fill:rgb(103,46,26);stroke:rgb(103,46,26);stroke-width:38.27px;"/>
        <path d="M2083.31,1219.13C2083.31,1219.13 2055.32,1248.93 2079.56,1257.57C2103.8,1266.2 2109.12,1256.77 2109.12,1256.77C2109.12,1256.77 2111.13,1246.31 2111.94,1236.08C2112.75,1225.84 2093.03,1218.17 2093.03,1218.17L2083.31,1219.13Z" style="fill:rgb(103,46,26);stroke:rgb(103,46,26);stroke-width:38.27px;"/>
        <path d="M1898.53,1188.12C1898.53,1188.12 1893.98,1206.58 1911.45,1205.49C1928.92,1204.4 1933.43,1197.51 1933.43,1197.51L1935.49,1177.35L1920.95,1166.58L1898.53,1188.12Z" style="fill:rgb(103,46,26);stroke:rgb(103,46,26);stroke-width:38.27px;"/>
        <path d="M2214.57,753.848C2214.57,753.848 2202.31,780.833 2227.32,784.334C2252.33,787.835 2214.45,812.664 2257.01,786.133C2299.57,759.603 2303.37,764.781 2296.95,752.872C2290.54,740.964 2298.09,741.298 2281.76,735.433C2265.43,729.569 2267.61,725.057 2254.58,728.239C2241.55,731.421 2214.57,753.848 2214.57,753.848Z" style="fill:rgb(103,46,26);stroke:rgb(103,46,26);stroke-width:38.27px;"/>
    </g>
    <g id="Layer9" transform="matrix(0.978382,0,0,0.98118,-484.771,31.6263)">
        <path d="M2149.81,1311.06C2149.81,1311.06 2140.85,1342 2163.07,1350.41C2185.29,1358.82 2188.47,1372.15 2201.8,1353.03C2215.12,1333.92 2213.51,1320.02 2213.51,1320.02L2194.17,1305.5L2177.28,1302.08L2149.81,1311.06Z" style="fill:rgb(106,60,25);stroke:rgb(106,60,25);stroke-width:38.27px;"/>
        <path d="M2224.38,1392.66L2255.46,1365.77L2271.83,1396.93L2253.11,1411.66L2224.38,1392.66Z" style="fill:rgb(106,60,25);stroke:rgb(106,60,25);stroke-width:38.27px;"/>
        <path d="M1981.88,1526.78L1999.2,1511.33L2012.82,1541.25L1981.88,1526.78Z" style="fill:rgb(106,60,25);stroke:rgb(106,60,25);stroke-width:38.27px;"/>
        <path d="M870.127,1799.38C870.127,1799.38 881.871,1749.94 907.714,1763.41C933.557,1776.88 937.529,1787.81 937.529,1787.81C937.529,1787.81 942.475,1794.33 933.076,1809.9C923.677,1825.46 906.888,1836.56 906.888,1836.56C906.888,1836.56 904.175,1838.26 890.811,1835.86C877.446,1833.46 874.994,1821.29 874.994,1821.29L870.127,1799.38Z" style="fill:rgb(106,60,25);stroke:rgb(106,60,25);stroke-width:38.27px;"/>
        <path d="M1110.35,1330.55C1110.35,1330.55 1117.01,1297.52 1132.32,1311.59C1147.62,1325.67 1150.74,1324.2 1139.95,1344.29C1129.16,1364.38 1121.95,1369.17 1121.95,1369.17L1109.9,1345.21L1110.35,1330.55Z" style="fill:rgb(106,60,25);stroke:rgb(106,60,25);stroke-width:38.27px;"/>
        <path d="M1209.93,1546.26C1209.93,1546.26 1188.9,1547.89 1210.34,1569.7C1231.77,1591.52 1208.52,1608.63 1235.78,1590.87C1263.04,1573.11 1265.62,1582.84 1268.29,1562.51C1270.97,1542.19 1296.79,1565.99 1270.59,1541.54C1244.38,1517.1 1239.44,1517.2 1239.44,1517.2C1239.44,1517.2 1232.07,1508.55 1217.99,1525.22C1203.92,1541.89 1209.93,1546.26 1209.93,1546.26Z" style="fill:rgb(106,60,25);stroke:rgb(106,60,25);stroke-width:38.27px;"/>
        <path d="M1395.45,1662.56C1395.45,1662.56 1382.41,1669.04 1404.44,1682.97C1426.48,1696.9 1405.17,1716.99 1430.27,1695.37C1455.37,1673.75 1460.76,1689.36 1454.62,1668.03C1448.49,1646.7 1471.77,1649.04 1448.1,1646.05C1424.43,1643.06 1423.19,1642.97 1423.19,1642.97L1410.1,1643.33L1397.75,1648.89" style="fill:rgb(106,60,25);stroke:rgb(106,60,25);stroke-width:38.27px;"/>
    </g>
    <g transform="matrix(0.978382,0,0,0.98118,-484.771,31.6263)">
        <g id="Layer2">
            <path d="M773.386,1825.21C773.386,1825.21 660.013,1735.21 773.348,1683.68C886.682,1632.16 905.6,1651.37 917.82,1557.2C930.04,1463.03 1004.74,1322.66 1112.37,1280.69C1220,1238.71 1158.32,1195.57 1304.16,1261.09C1450,1326.61 1518.71,1254.71 1565.43,1179.62C1612.15,1104.53 1747.19,1138.51 1747.19,1138.51C1747.19,1138.51 1814.35,1157.79 1861.94,1059.83C1909.54,961.868 2034.65,1015.73 2027.81,894.658C2020.97,773.589 2225.81,735.405 2319.82,727.72C2413.84,720.035 2309.91,570.005 2486.84,635.79C2486.84,635.79 2561.7,671.246 2645.66,587.133C2645.66,587.133 2771.02,541.358 2729.36,728.664C2729.36,728.664 2677.56,790.127 2736.67,859.335C2795.78,928.543 2817.81,942.712 2767.37,981.663C2767.37,981.663 2883.28,990.698 2845.24,677.963C2845.24,677.963 2712.68,374.424 2541.73,562.376C2541.73,562.376 2515.95,590.224 2482.76,547.144C2449.57,504.064 2287.99,452.081 2198.82,645.942C2198.82,645.942 2185.7,705.921 2126.34,677.462C2066.99,649.003 1976.08,740.977 1981.67,790.027C1981.67,790.027 1953.88,819.321 1929.04,807.745C1929.04,807.745 1790.73,825.364 1800.42,953.027C1800.42,953.027 1645.37,923.34 1625.19,1027.74C1625.19,1027.74 1587.91,1074.63 1542.5,1056.06C1542.5,1056.06 1410.3,1093.92 1369.44,1152.81C1369.44,1152.81 1193.37,1052.57 1093.1,1111.5C1093.1,1111.5 938.127,1182.97 963.651,1304.82C963.651,1304.82 841.418,1349.62 810.793,1410.17C810.793,1410.17 776.721,1457.36 794.416,1492.13C794.416,1492.13 788.124,1566.24 725.822,1558.41C725.822,1558.41 595.408,1596.63 638.744,1698.53C638.744,1698.53 662.476,1804.36 703.84,1816.77C745.205,1829.17 749.786,1832.94 749.786,1832.94L773.386,1825.21Z" style="fill:rgb(188,115,93);stroke:rgb(188,115,93);stroke-width:19.14px;"/>
        </g>
        <g id="Layer3">
            <path d="M1771.36,1182.85C1771.36,1182.85 1765.07,1205.12 1808.43,1194.94C1851.8,1184.76 1820.62,1163.51 1820.62,1163.51L1771.36,1182.85Z" style="fill:rgb(188,115,93);stroke:rgb(188,115,93);stroke-width:19.14px;"/>
            <path d="M1592.37,1267.33C1592.37,1267.33 1627.97,1319.95 1685.19,1253.67C1742.41,1187.38 1647.18,1212.37 1608.02,1230.95C1568.86,1249.53 1592.37,1267.33 1592.37,1267.33Z" style="fill:rgb(188,115,93);stroke:rgb(188,115,93);stroke-width:19.14px;"/>
            <path d="M1385.43,1288.64C1385.43,1288.64 1360.96,1332.96 1400.54,1340.72C1440.12,1348.48 1456.34,1339.84 1455.19,1327.69C1454.03,1315.55 1472.34,1277.67 1450.72,1265.91C1429.11,1254.16 1385.43,1288.64 1385.43,1288.64Z" style="fill:rgb(188,115,93);stroke:rgb(188,115,93);stroke-width:19.14px;"/>
            <path d="M1061.93,1345.55C1061.93,1345.55 984.237,1418.37 961.845,1501.38C939.453,1584.38 1061.93,1345.55 1061.93,1345.55Z" style="fill:rgb(188,115,93);stroke:rgb(188,115,93);stroke-width:19.14px;"/>
            <path d="M1053.45,1445.62C1053.45,1445.62 997.237,1499.08 994.843,1537.72C992.449,1576.36 997.437,1610.98 1058.77,1577.44C1120.1,1543.89 1076.73,1504.2 1076.73,1504.2L1053.45,1445.62Z" style="fill:rgb(188,115,93);stroke:rgb(188,115,93);stroke-width:19.14px;"/>
            <path d="M1266.16,1309.34C1266.16,1309.34 1097.55,1362.14 1113.42,1481.67C1129.3,1601.19 1192.01,1493.15 1214.95,1453.81C1237.89,1414.46 1267.88,1394.09 1267.88,1394.09C1267.88,1394.09 1335.1,1308.17 1266.16,1309.34" style="fill:rgb(188,115,93);stroke:rgb(188,115,93);stroke-width:19.14px;"/>
            <path d="M2635.63,1014.93C2635.63,1014.93 2599.11,1011.26 2598.14,1028.18C2597.16,1045.11 2588.27,1047.45 2605.38,1050.75C2622.48,1054.04 2634.6,1041.95 2634.6,1041.95L2635.63,1014.93Z" style="fill:rgb(188,115,93);stroke:rgb(188,115,93);stroke-width:19.14px;"/>
            <path d="M2335.36,1355.44C2347.2,1344.38 2357.78,1369.62 2368.02,1342.61C2378.26,1315.6 2399.03,1367.05 2378.02,1376.43C2357.01,1385.8 2352.58,1383.29 2352.58,1383.29C2352.58,1383.29 2323.52,1366.52 2335.36,1355.44Z" style="fill:rgb(188,115,93);stroke:rgb(188,115,93);stroke-width:19.14px;"/>
            <path d="M2489.76,689.452C2504.79,678.693 2531.65,653.572 2574.52,680.68C2617.38,707.789 2594.49,724.886 2580.36,736.35C2566.23,747.813 2549.15,744.351 2542.62,735.784C2536.1,727.217 2524.14,719.433 2514.84,721.457C2505.53,723.482 2489.7,721.331 2489.7,721.331C2489.7,721.331 2474.72,700.211 2489.76,689.452Z" style="fill:rgb(188,115,93);stroke:rgb(188,115,93);stroke-width:19.14px;"/>
            <path d="M2660.91,635.042C2660.91,635.042 2629,646.547 2630.94,658.914C2632.88,671.281 2627.99,686.736 2642.37,698.315C2656.75,709.895 2686.14,693.562 2687.38,677.112C2688.61,660.661 2693.27,662.657 2689.27,645.993C2685.27,629.33 2660.91,635.042 2660.91,635.042Z" style="fill:rgb(188,115,93);stroke:rgb(188,115,93);stroke-width:19.14px;"/>
            <path d="M2621.84,751.824C2621.84,751.824 2592.48,771.069 2591.06,787.523C2589.65,803.977 2611.42,826.153 2634.58,801.259C2657.74,776.365 2640.32,775.422 2640.32,775.422L2621.84,751.824Z" style="fill:rgb(188,115,93);stroke:rgb(188,115,93);stroke-width:19.14px;"/>
            <path d="M826.693,1813.09C826.693,1813.09 809.11,1850.49 826.741,1866.23C844.372,1881.97 857.368,1844.57 857.368,1844.57L826.693,1813.09Z" style="fill:rgb(188,115,93);stroke:rgb(188,115,93);stroke-width:19.14px;"/>
        </g>
    </g>
    <g id="Layer11" serif:id="Layer1" transform="matrix(0.978382,0,0,0.98118,-484.771,31.6263)">
        <path d="M954.231,1301.71C954.231,1301.71 1007.57,968.556 1352.8,1144.68C1352.8,1144.68 1365.61,1154.29 1389.17,1134.18C1412.74,1114.06 1460.43,1071.79 1574.4,1055.65C1574.4,1055.65 1598.56,1055.36 1629.73,1012.3C1660.91,969.252 1718.28,936.069 1794.61,951.254C1794.61,951.254 1795.99,885.934 1858.88,833.052C1858.88,833.052 1888.61,805.824 1942.97,809.946C1942.97,809.946 1970.68,805.951 1992.09,758.375C2013.5,710.8 2076.77,663.837 2151.32,679.829C2151.32,679.829 2198.01,693.08 2226.97,605.413C2255.93,517.746 2384.18,459.824 2496.03,555.376C2496.03,555.376 2512.23,580.638 2551.97,550.609C2591.71,520.58 2686.74,397.633 2822.38,627.053C2822.38,627.053 2905.35,748.43 2866.94,886.959C2828.53,1025.49 2764.5,956.832 2752.28,1004.62C2740.06,1052.41 2643.88,1081.14 2643.88,1081.14C2643.88,1081.14 2531.6,1148.15 2526.55,1282.9C2521.51,1417.65 2278.87,1457.08 2204.6,1444.68C2130.33,1432.29 2142.12,1527.46 2055.16,1564.57C1968.19,1601.68 1951.41,1574.8 1897.32,1631.47C1897.32,1631.47 1807.84,1745.02 1694.32,1772.18C1694.32,1772.18 1640.24,1802.26 1570.97,1884.05C1501.71,1965.84 1270.49,1956.1 1242.98,1912.27C1242.98,1912.27 1220.11,1882.13 1186.35,1916.87C1152.6,1951.61 1119.06,1989.29 1030.34,1973.77C1030.34,1973.77 969.592,1990.77 927.111,1958.72C884.63,1926.67 769.76,1963.25 785.227,1828.68C785.227,1828.68 684.001,1849.98 654.321,1750.5C624.642,1651.03 608.272,1585.53 742.801,1561.74C742.801,1561.74 808.91,1541.19 791.656,1467.9C774.402,1394.6 954.231,1301.71 954.231,1301.71Z" style="fill:none;stroke:rgb(70,25,9);stroke-width:40.4px;"/>
    </g>
    <g id="Layer6" transform="matrix(0.978382,0,0,0.98118,-484.771,31.6263)">
        <g transform="matrix(1,0,0,1,5.95809,-26.1406)">
            <ellipse cx="2259.46" cy="1025.39" rx="71.737" ry="70.765" style="fill:rgb(70,25,9);stroke:rgb(106,60,25);stroke-width:38.27px;"/>
        </g>
        <g transform="matrix(1,0,0,1,-849.833,467.275)">
            <ellipse cx="2259.46" cy="1025.39" rx="71.737" ry="70.765" style="fill:rgb(70,25,9);stroke:rgb(106,60,25);stroke-width:38.27px;"/>
        </g>
    </g>
    <g id="Layer7">
    </g>
    <g id="Layer8">
    </g>
    <g transform="matrix(0.978382,0,0,0.98118,-484.771,31.6263)">
        <g id="Layer4">
            <g transform="matrix(1,0,0,1,3.07958,-29.7413)">
                <ellipse cx="1405.66" cy="1521.97" rx="64.869" ry="64.529" style="fill:rgb(70,25,9);stroke:rgb(70,25,9);stroke-width:19.14px;"/>
            </g>
            <g transform="matrix(1,0,0,1,858.065,-522.576)">
                <ellipse cx="1405.66" cy="1521.97" rx="64.869" ry="64.529" style="fill:rgb(70,25,9);stroke:rgb(70,25,9);stroke-width:19.14px;"/>
            </g>
        </g>
        <g transform="matrix(0.963284,0.268486,-0.268486,0.963284,444.676,-474.167)">
            <g id="Layer5">
                <path d="M1894.55,1446.97C1899.07,1449.33 1908.09,1454.35 1936.61,1457.51C1979.12,1462.21 2038.49,1442.5 2031.27,1368.56C2029.82,1353.7 2024.89,1341.89 2016.13,1322.64" style="fill:none;stroke:rgb(70,25,9);stroke-width:38.25px;"/>
            </g>
        </g>
    </g>
    <g id="Layer10" transform="matrix(0.978382,0,0,0.98118,-484.771,31.6263)">
        <g transform="matrix(0.89072,0,0,0.859536,247.109,137.321)">
            <ellipse cx="2272.93" cy="966.193" rx="11.675" ry="11.433" style="fill:white;stroke:white;stroke-width:43.73px;"/>
        </g>
        <g transform="matrix(0.89072,0,0,0.859536,-599.546,631.737)">
            <ellipse cx="2272.93" cy="966.193" rx="11.675" ry="11.433" style="fill:white;stroke:white;stroke-width:43.73px;"/>
        </g>
    </g>
</svg>
