<?xml version="1.0" encoding="UTF-8" standalone="no"?>
<!DOCTYPE svg PUBLIC "-//W3C//DTD SVG 1.1//EN" "http://www.w3.org/Graphics/SVG/1.1/DTD/svg11.dtd">
<svg width="100%" height="100%" viewBox="0 0 1500 1500" version="1.1" xmlns="http://www.w3.org/2000/svg" xmlns:xlink="http://www.w3.org/1999/xlink" xml:space="preserve" xmlns:serif="http://www.serif.com/" style="fill-rule:evenodd;clip-rule:evenodd;stroke-linecap:round;stroke-linejoin:round;stroke-miterlimit:10;">
    <g transform="matrix(0.75,0,0,0.75,0,0)">
        <g transform="matrix(1,0,0,1,-366,-24)">
            <g id="Layer1">
                <g>
                    <g id="Layer4">
                        <g>
                            <path d="M849.605,1193.8C849.605,1193.8 609.274,1335.41 683.241,1523.58C757.207,1711.76 767.581,1696.26 979.054,1748.29L1797.78,1749.84C1836.46,1756.09 1994.28,1684.6 2043.47,1554.52C2086.51,1440.66 2039.36,1273.65 1848.92,1184.54L1860.78,1136.42C1860.78,1136.42 1945.89,910.796 1643.77,893.897L1651.75,856.926C1651.75,856.926 1800.95,657.682 1543.56,620.342C1286.16,583.002 1350.15,468.105 1369.52,393.905C1388.88,319.705 1395.31,310.554 1395.31,310.554L1182.97,448.143C1182.97,448.143 921.942,635.175 1062.73,866.483C1062.73,866.483 1069.43,897.865 999.579,893.417C940.587,889.661 873.449,933.422 844.339,1006.22C815.416,1078.55 824.248,1179.86 849.605,1193.8Z" style="fill:rgb(136,71,49);stroke:rgb(136,71,49);stroke-width:32.71px;"/>
                        </g>
                    </g>
                    <g id="Layer5" opacity="0.65">
                        <path d="M1023.65,1757.22C997.058,1737.11 757.574,1606.91 976.425,1395.48C976.425,1395.48 1018.89,1323.6 993.131,1294.53C967.373,1265.45 892.058,1088.05 1137.29,1006.03C1155.89,999.81 1171.11,1000 1187.6,984.808C1198.52,974.747 1185.26,959.711 1160.95,914.994C1130.13,858.319 1096.56,543.446 1405.09,322.363C1405.09,322.363 1373.37,265.994 1179.5,462.546C985.627,659.097 1015.2,703.168 1049.46,862.898C1049.46,862.898 1076.21,885.15 994.565,899.648C912.921,914.146 769.669,1031 854.567,1189.53C854.567,1189.53 834.876,1191.66 776.918,1235.48C690.635,1300.72 674.507,1392.58 677.989,1477.53C683.1,1602.17 740.707,1717.92 844.009,1736.65C879.21,1743.03 920.696,1753.06 959.998,1758.45C983.579,1761.69 1010.01,1768.48 1023.65,1757.22Z" style="fill:rgb(176,92,64);stroke:rgb(176,92,64);stroke-width:32.71px;"/>
                    </g>
                    <path d="M832.952,1185.34C832.952,1185.34 538.107,1310.14 691.929,1626.78C691.929,1626.78 750.755,1762.5 950.046,1767.48C1149.34,1772.46 1800.83,1761.78 1800.83,1761.78C1942.04,1734.78 2049.37,1663.85 2069.54,1495.69C2081.07,1399.59 2039.78,1204.33 1862.05,1172.32C1898.5,1145.82 1958.13,863.383 1656.45,877.277C1733.43,844.58 1796.54,620.546 1547.48,603.55C1547.48,603.55 1404.83,620.997 1375.23,514.393C1375.23,514.393 1355.88,457.198 1399.05,379.127C1399.05,379.127 1433.16,319.982 1406.06,292.02C1385.33,270.631 1309.41,326.767 1269.2,359.058C1258.42,367.722 1241.95,379.791 1241.95,379.791C1241.09,380.613 1215.38,395.134 1182.34,420.229C1091.62,489.12 938.229,645.383 1035.61,875.349C870.331,881.838 753.083,1023.29 832.952,1185.34Z" style="fill:none;stroke:rgb(69,24,9);stroke-width:38.62px;"/>
                </g>
            </g>
            <g id="Layer6">
                <g>
                    <path d="M1763.99,1254.4C1809.46,1254.4 1846.39,1291.32 1846.39,1336.8C1846.39,1382.27 1809.46,1419.2 1763.99,1419.2C1718.51,1419.2 1681.59,1382.27 1681.59,1336.8C1681.59,1291.32 1718.51,1254.4 1763.99,1254.4Z" style="fill:rgb(95,50,34);stroke:rgb(95,50,34);stroke-width:32.71px;"/>
                </g>
            </g>
            <g id="Layer61" serif:id="Layer6">
                <g>
                    <path d="M972.173,1249.43C1017.65,1249.43 1054.57,1286.35 1054.57,1331.83C1054.57,1377.31 1017.65,1414.23 972.173,1414.23C926.695,1414.23 889.772,1377.31 889.772,1331.83C889.772,1286.35 926.695,1249.43 972.173,1249.43Z" style="fill:rgb(95,50,34);stroke:rgb(95,50,34);stroke-width:32.71px;"/>
                </g>
            </g>
            <g id="Layer2">
                <g>
                    <path d="M1763.66,1282.38C1793.02,1282.38 1816.87,1305.2 1816.87,1333.32C1816.87,1361.43 1793.02,1384.26 1763.66,1384.26C1734.29,1384.26 1710.45,1361.43 1710.45,1333.32C1710.45,1305.2 1734.29,1282.38 1763.66,1282.38Z" style="fill:rgb(69,24,9);stroke:rgb(69,24,9);stroke-width:38.62px;"/>
                    <path d="M971.244,1283.07C1000.61,1283.07 1024.45,1305.9 1024.45,1334.01C1024.45,1362.12 1000.61,1384.95 971.244,1384.95C941.879,1384.95 918.038,1362.12 918.038,1334.01C918.038,1305.9 941.879,1283.07 971.244,1283.07Z" style="fill:rgb(69,24,9);stroke:rgb(69,24,9);stroke-width:38.62px;"/>
                </g>
            </g>
            <g id="Layer3">
                <g>
                    <path d="M1306.68,1531.2C1357.24,1618.1 1447.73,1599.48 1483.97,1525.93" style="fill:none;stroke:rgb(69,24,9);stroke-width:38.62px;"/>
                </g>
            </g>
        </g>
        <g transform="matrix(0.723424,0,0,0.675795,115.146,420.733)">
            <g id="Layer7">
                <ellipse cx="1821.49" cy="1275.35" rx="24.892" ry="25.312" style="fill:white;"/>
            </g>
        </g>
        <g transform="matrix(0.723424,0,0,0.675795,-677.268,420.733)">
            <g id="Layer71" serif:id="Layer7">
                <ellipse cx="1821.49" cy="1275.35" rx="24.892" ry="25.312" style="fill:white;"/>
            </g>
        </g>
    </g>
</svg>
