<svg version="1.2" baseProfile="tiny-ps" xmlns="http://www.w3.org/2000/svg" viewBox="0 0 1018 1018" width="500" height="500">
	<title>shit-logo</title>
	<style>
		tspan { white-space:pre }
		.shp0 { fill: #884731;stroke: #884731;stroke-linecap:round;stroke-linejoin:round;stroke-width: 24.532 } 
		.shp1 { fill: #b05c40;stroke: #b05c40;stroke-linecap:round;stroke-linejoin:round;stroke-width: 24.532 } 
		.shp2 { fill: none;stroke: #451809;stroke-linecap:round;stroke-linejoin:round;stroke-width: 28.965 } 
		.shp3 { fill: #451809;stroke: #451809;stroke-linecap:round;stroke-linejoin:round;stroke-width: 28.965 } 
		.shp4 { fill: #ffffff } 
	</style>
	<g >
		<g >
			<path fill-rule="evenodd" class="shp0" d="M243.15 591.83C243.15 591.83 117.4 665.93 156.1 764.38C194.8 862.84 200.23 854.73 310.88 881.96L739.26 882.77C759.5 886.04 842.08 848.63 867.82 780.57C890.34 721 865.67 633.61 766.02 586.99L772.23 561.81C772.23 561.81 816.76 443.75 658.68 434.91L662.86 415.57C662.86 415.57 740.92 311.32 606.25 291.78C471.57 272.24 505.05 212.12 515.19 173.3C525.32 134.48 528.68 129.69 528.68 129.69L417.58 201.68C417.58 201.68 281 299.54 354.66 420.57C354.66 420.57 358.17 436.99 321.62 434.66C290.75 432.69 255.63 455.59 240.39 493.68C225.26 531.53 229.88 584.54 243.15 591.83Z" />
			<path fill-rule="evenodd" class="shp1" d="M332.82 890.12C318.91 879.6 193.6 811.47 308.11 700.84C308.11 700.84 330.33 663.23 316.85 648.02C303.37 632.81 263.97 539.99 392.28 497.07C402.01 493.82 409.98 493.92 418.6 485.97C424.32 480.7 417.38 472.84 404.66 449.44C388.53 419.78 370.97 255.03 532.4 139.35C532.4 139.35 515.8 109.86 414.37 212.7C312.92 315.54 328.4 338.6 346.32 422.18C346.32 422.18 360.32 433.82 317.6 441.41C274.88 448.99 199.93 510.14 244.35 593.08C244.35 593.08 234.05 594.2 203.72 617.13C158.58 651.26 150.14 699.33 151.96 743.78C154.63 808.99 184.77 869.55 238.83 879.35C257.24 882.69 278.95 887.94 299.52 890.76C311.85 892.46 325.68 896.01 332.82 890.12Z" />
			<path class="shp2" d="M233.04 590.89C233.04 590.89 78.77 656.19 159.25 821.87C159.25 821.87 190.03 892.88 294.31 895.49C398.58 898.09 739.47 892.5 739.47 892.5C813.35 878.38 869.51 841.26 880.06 753.28C886.1 702.99 864.49 600.83 771.5 584.08C790.57 570.21 821.77 422.43 663.92 429.7C704.2 412.6 737.22 295.37 606.9 286.48C606.9 286.48 532.27 295.61 516.78 239.83C516.78 239.83 506.65 209.9 529.24 169.06C529.24 169.06 547.09 138.11 532.91 123.48C522.06 112.29 482.34 141.66 461.3 158.55C455.66 163.09 447.04 169.4 447.04 169.4C446.59 169.83 433.14 177.43 415.85 190.56C368.38 226.61 288.12 308.37 339.08 428.69C252.6 432.09 191.25 506.1 233.04 590.89Z" />
		</g>
		<g >
			<path fill-rule="evenodd" class="shp3" d="M627.13 605.8C644.97 605.8 659.47 619.67 659.47 636.76C659.47 653.85 644.97 667.72 627.13 667.72C609.28 667.72 594.79 653.85 594.79 636.76C594.79 619.67 609.28 605.8 627.13 605.8Z" />
			<path class="shp4" d="M648.52 630.11C642.47 630.11 637.58 625.47 637.58 619.72C637.58 613.97 642.47 609.32 648.52 609.32C654.57 609.32 659.46 613.97 659.46 619.72C659.46 625.47 654.57 630.11 648.52 630.11Z" />
		</g>
		<g >
			<path fill-rule="evenodd" class="shp3" d="M398.21 607.84C416.06 607.84 430.55 621.72 430.55 638.8C430.55 655.89 416.06 669.76 398.21 669.76C380.37 669.76 365.88 655.89 365.88 638.8C365.88 621.72 380.37 607.84 398.21 607.84Z" />
			<path class="shp4" d="M419.61 632.55C413.55 632.55 408.66 627.9 408.66 622.15C408.66 616.4 413.55 611.75 419.61 611.75C425.66 611.75 430.55 616.4 430.55 622.15C430.55 627.9 425.66 632.55 419.61 632.55Z" />
		</g>
		<g >
			<path class="shp2" d="M480.91 771.86C507.36 817.33 554.71 807.58 573.67 769.1" />
		</g>
	</g>
</svg>