<?xml version="1.0" encoding="UTF-8" standalone="no"?>
<!DOCTYPE svg PUBLIC "-//W3C//DTD SVG 1.1//EN" "http://www.w3.org/Graphics/SVG/1.1/DTD/svg11.dtd">
<svg width="100%" height="100%" viewBox="0 0 2481 2481" version="1.1" xmlns="http://www.w3.org/2000/svg" xmlns:xlink="http://www.w3.org/1999/xlink" xml:space="preserve" xmlns:serif="http://www.serif.com/" style="fill-rule:evenodd;clip-rule:evenodd;stroke-linecap:round;stroke-linejoin:round;stroke-miterlimit:1.5;">
    <g id="Layer1" transform="matrix(0.811847,0,0,0.919943,-245.934,187.024)">
        <path d="M440.778,1542.35C391.471,1527.84 375.308,1478.56 503.868,1452.71C503.868,1452.71 538.331,1451.45 548.764,1419.94C559.196,1388.43 637.843,1320.75 732.382,1382.11C732.382,1382.11 763.927,1396.32 770.104,1375.02C776.281,1353.71 833.55,1316.11 883.124,1351.47C883.124,1351.47 970.688,1347.51 990.324,1319.47C1009.96,1291.44 1044.59,1295.12 1044.59,1295.12C1044.59,1295.12 1078.91,1185.76 1165.87,1233.89C1165.87,1233.89 1195.64,1246.32 1255,1208.54C1314.37,1170.75 1458.32,1159.84 1481.03,1154.91C1503.73,1149.98 1537.14,1118.85 1524.14,1095.65C1511.14,1072.45 1497.59,827.85 1810.28,819.958C1810.28,819.958 1858.63,821.668 1869.46,788.06C1880.28,754.453 1896.73,851.896 1825.41,875.127C1754.09,898.358 1718.75,974.644 1758.86,1026.09C1798.97,1077.54 1880.38,1108.26 1880.38,1108.26C1880.38,1108.26 2103.64,1089.72 2134.91,1116.05C2134.91,1116.05 2187.12,1130.23 2212.68,1151.16C2238.24,1172.1 2263.94,1130.04 2263.94,1130.04C2263.94,1130.04 2399.23,992.671 2562.77,1105.1C2562.77,1105.1 2677.45,1148.92 2724.42,1198.76C2724.42,1198.76 2800.69,1183.35 2821.48,1260.39C2821.48,1260.39 2843.48,1302.4 2921.03,1270.99C2998.57,1239.58 3092.52,1276.07 3097.15,1337.88C3097.15,1337.88 3164.42,1370.69 3148.7,1395.08C3148.7,1395.08 3207.17,1404.23 3214.23,1429.36C3214.23,1429.36 3257.02,1424.39 3253.88,1447.06C3250.74,1469.73 3215.03,1474.2 3169.94,1472.64C3124.86,1471.07 3122.4,1523.07 2947.17,1507.76C2771.95,1492.46 2712.73,1569.17 2478.92,1522.18C2478.92,1522.18 2342.56,1562.02 2256.72,1563.15C2170.87,1564.27 2038.15,1532.27 2022.61,1524.63C2007.07,1516.99 1974.17,1521.12 1856.47,1565.03C1856.47,1565.03 1774.44,1597.32 1655.97,1540.5C1655.97,1540.5 1594.54,1516.74 1503.11,1540.74C1411.68,1564.73 1385.66,1574.72 1160.66,1527.22C1160.66,1527.22 911.443,1557.21 777.998,1534.4C777.998,1534.4 621.612,1555.03 580.8,1546.64C580.8,1546.64 490.086,1556.86 440.778,1542.35Z" style="fill:rgb(138,84,46);stroke:rgb(70,25,9);stroke-width:31.22px;"/>
    </g>
    <g transform="matrix(0.811847,0,0,0.919943,-245.934,187.024)">
        <g id="Layer2">
            <path d="M478.696,1546.71C478.696,1546.71 457.039,1503.06 534.59,1492.11C612.14,1481.17 619.896,1446.01 619.896,1446.01C619.896,1446.01 661.838,1407.33 711.595,1434.39C761.352,1461.45 824.302,1404.39 834.656,1388.67C834.656,1388.67 886.105,1399.78 957.21,1368.14C1028.31,1336.5 1005.18,1356.23 1034.09,1330.95C1034.09,1330.95 1072.68,1334.14 1096.01,1312.84C1119.34,1291.55 1132.8,1272.18 1174.24,1273.48C1215.68,1274.78 1270.19,1233.32 1270.19,1233.32C1270.19,1233.32 1438.16,1245.5 1538.55,1183.72C1638.95,1121.93 1580.25,1075.13 1575.86,1060.38C1571.46,1045.64 1520.49,1014.37 1636.93,903.034C1636.93,903.034 1677.35,877.723 1730.47,872.653C1783.59,867.582 1712.34,874.789 1699.89,929.979C1687.44,985.169 1679.58,1097.25 1796.13,1158.68C1796.13,1158.68 1828.8,1181.41 1864.38,1172.84C1899.96,1164.26 1926.87,1192.4 1926.87,1192.4C1926.87,1192.4 2037.07,1215.16 2106.86,1175.67C2106.86,1175.67 2157.25,1168.46 2205.34,1206.28C2253.44,1244.1 2290.32,1212.62 2305.49,1184.66C2320.65,1156.71 2433.16,1106.14 2505.5,1139.27C2577.83,1172.4 2512.83,1207.06 2610.38,1209.38C2610.38,1209.38 2614.78,1284.68 2698.43,1279.39C2782.09,1274.09 2726.32,1312.12 2777.97,1330.71C2829.61,1349.31 2797.87,1359.92 2858.66,1337.51C2919.45,1315.1 2982.37,1324.72 2982.37,1324.72C2982.37,1324.72 3020.93,1329.53 3086.66,1379.2C3086.66,1379.2 3088.5,1428.7 3137.76,1432.84C3187.03,1436.98 3177.91,1444.44 3177.91,1444.44L3195.03,1465.6L3220.58,1469.02L3252.16,1442.56L3227.31,1427.72L3191.41,1410.86L3155.61,1401.49L3148.17,1369.83L3096.61,1336.75L3064.97,1282.93C3064.97,1282.93 2984.11,1250.57 2949.29,1269.05C2914.48,1287.52 2826.78,1295.18 2822.32,1255.86C2817.85,1216.55 2747.39,1188.33 2720.09,1200.07L2683.74,1167.26L2641.43,1141.91L2605.1,1131.89L2562.22,1102.98L2526.61,1083.73L2490.89,1071.62L2467.64,1065.99L2400.2,1065.7L2332.58,1084.75L2277.21,1124.72L2246.41,1151.57L2228.43,1157.85L2188.93,1134.09L2137.25,1111.87L2081.59,1105.69L2051.57,1103.86L2003.5,1101.72L1944.52,1106.1L1867.83,1105.63L1793.59,1058.06L1760.83,1023.19L1746.83,992.595C1746.83,992.595 1739.51,941.74 1773.08,909.302C1806.64,876.865 1824.33,867.517 1849.13,866.911C1873.92,866.304 1879.67,800.881 1874.47,790.703C1869.27,780.526 1862.97,829.803 1812.44,823.352C1761.91,816.901 1681.69,844.852 1681.69,844.852C1681.69,844.852 1601.38,863.143 1568.23,921.957C1535.08,980.772 1501.22,1026.82 1519.16,1074C1537.1,1121.18 1509.21,1158.55 1473.98,1153.44C1438.76,1148.33 1325.88,1182.8 1325.88,1182.8L1228.11,1219.6C1228.11,1219.6 1202.3,1245.67 1145.75,1231.3C1089.19,1216.93 1073.33,1249.29 1049.2,1289.22L1009.79,1299.33L986.525,1325.44L943.766,1339.26L906.847,1351.76L873.627,1344.49L831.528,1336.68L785.399,1359.23L764.174,1381.62L733.693,1380.9L681.98,1359.69L611.48,1368.8L570.739,1391.17L550.454,1416.46L535.344,1446.72L457.87,1468.13C457.87,1468.13 406.627,1488.9 409.003,1506.86C411.378,1524.82 418.794,1536.42 418.794,1536.42L445.375,1546.75L478.696,1546.71Z" style="fill:rgb(175,94,66);stroke:rgb(175,94,66);stroke-width:19.21px;"/>
        </g>
        <g id="Layer3">
            <path d="M2484.28,1203.34C2484.28,1203.34 2460.2,1211.65 2476.03,1230.66C2491.86,1249.68 2467.43,1250.41 2504.9,1253.24C2542.37,1256.08 2577.88,1280.86 2580.97,1261.01C2584.06,1241.15 2595.75,1233.54 2566.15,1226.95C2536.55,1220.37 2539.4,1227.64 2530.24,1208.83C2521.09,1190.01 2504.48,1180.3 2491.09,1188.48C2477.69,1196.67 2484.28,1203.34 2484.28,1203.34Z" style="fill:rgb(175,94,66);stroke:rgb(175,94,66);stroke-width:19.21px;"/>
            <path d="M2693.18,1333.72C2712.74,1334.85 2720.99,1323.77 2722.05,1346.58C2723.12,1369.38 2730.76,1366.37 2707.96,1374.21C2685.16,1382.04 2678.09,1391.26 2672.02,1369.85C2665.96,1348.45 2649.5,1357.97 2666.67,1341.08C2683.85,1324.19 2673.61,1332.6 2693.18,1333.72Z" style="fill:rgb(175,94,66);stroke:rgb(175,94,66);stroke-width:19.21px;"/>
            <path d="M2918.8,1377.12C2918.8,1377.12 2963.62,1396.71 3000.48,1385.66C3037.34,1374.61 3025.93,1393.63 3008.81,1407.97C2991.69,1422.32 3015.21,1435.24 2972.5,1429.05C2929.79,1422.86 2927.53,1431.75 2929.01,1407.89C2930.5,1384.04 2918.8,1377.12 2918.8,1377.12Z" style="fill:rgb(175,94,66);stroke:rgb(175,94,66);stroke-width:19.21px;"/>
            <path d="M2880.38,1367.74C2880.38,1367.74 2854.33,1369.98 2859.16,1391.73C2863.99,1413.49 2854.16,1430.33 2870.93,1408.67C2887.7,1387.02 2883.96,1401.74 2886.63,1385.71C2889.31,1369.68 2880.38,1367.74 2880.38,1367.74Z" style="fill:rgb(175,94,66);stroke:rgb(175,94,66);stroke-width:19.21px;"/>
            <path d="M2036.85,1234.55C2036.85,1234.55 2020.95,1247.41 2037.08,1255.05C2053.22,1262.68 2043.56,1266.83 2063.43,1258.09C2083.31,1249.34 2087.47,1257.9 2082.72,1240.65C2077.96,1223.4 2103.37,1225.22 2073.83,1223.29C2044.3,1221.35 2059.07,1216.5 2059.07,1216.5L2045.17,1225.27L2036.85,1234.55Z" style="fill:rgb(175,94,66);stroke:rgb(175,94,66);stroke-width:19.21px;"/>
            <path d="M1492.01,1238.21C1492.01,1238.21 1498.95,1238.26 1517.56,1227.55C1536.16,1216.84 1558.44,1201.41 1558.44,1201.41L1588.84,1179.53C1588.84,1179.53 1599.64,1225.97 1566.84,1242.52C1534.03,1259.07 1542.46,1256.6 1521.5,1256.22C1500.54,1255.85 1496.52,1251.02 1496.52,1251.02L1492.01,1238.21Z" style="fill:rgb(175,94,66);stroke:rgb(175,94,66);stroke-width:19.21px;"/>
            <path d="M1155.49,1324.59C1155.49,1324.59 1109.97,1340.17 1113.26,1358.73C1116.56,1377.28 1112.33,1382.62 1141.61,1384.97C1170.9,1387.32 1178.1,1383.1 1185.53,1358.81C1192.97,1334.53 1193.87,1326.99 1207.48,1314.7C1221.1,1302.4 1243.75,1308.18 1240.3,1292.59C1236.86,1277.01 1165.81,1301.54 1165.81,1301.54L1155.49,1324.59Z" style="fill:rgb(175,94,66);stroke:rgb(175,94,66);stroke-width:19.21px;"/>
        </g>
    </g>
    <g id="Layer7" transform="matrix(0.811847,0,0,0.919943,-245.934,187.024)">
        <path d="M571.538,1540.83C571.538,1540.83 649.862,1508.73 685.668,1513.44C721.474,1518.15 730.013,1478.45 763.863,1502.04C763.863,1502.04 766.75,1525.07 780.012,1499.58C793.275,1474.1 844.616,1402.37 997.397,1436.08C997.397,1436.08 1121.67,1440.65 1161.99,1467.9C1202.3,1495.14 1142.75,1437.78 1202.15,1437.55C1261.56,1437.33 1171.51,1387.16 1257.66,1370.12C1257.66,1370.12 1311.58,1382.48 1279.84,1439.46C1248.11,1496.45 1277.09,1433.45 1325.59,1471.05C1374.08,1508.64 1345.72,1470.73 1421.34,1465.13C1421.34,1465.13 1505.22,1424.01 1559.1,1449.82C1559.1,1449.82 1644.67,1453.6 1700.24,1489.34C1755.81,1525.07 1776.07,1546.69 1890.71,1513.08C2005.35,1479.47 1978.26,1468.46 2066.25,1481.08C2066.25,1481.08 2162.66,1464.53 2239.05,1486.3C2315.45,1508.08 2347.01,1510.41 2394.29,1472.54C2441.58,1434.67 2479.51,1393.91 2620.98,1436.08C2620.98,1436.08 2658.16,1406.42 2706.93,1463.75C2706.93,1463.75 2801.81,1446.19 2849.02,1467.95C2896.24,1489.7 2828.61,1432.09 2993.47,1474.93C2993.47,1474.93 3041.3,1480.39 3112.47,1462.27C3183.63,1444.14 3167.36,1473.28 3167.36,1473.28L3030.71,1508.27L2824.87,1511.37L2627.32,1537.75L2492.57,1527.53L2439.94,1530.04L2326.29,1557.71L2191.43,1563.01L2108.27,1546.82L2043.53,1535.53L2016.67,1524.03L1982.35,1525.83L1929.06,1542.42L1876.81,1560.07L1815.46,1575.33L1754.09,1570.46L1717.53,1564.91L1665.84,1542.39L1622.02,1533.6L1549.61,1534.74L1494.74,1543.44L1425.81,1560.67L1368.42,1562.29L1320.71,1557.79L1270.96,1552.24L1217.43,1540.78L1178.67,1534.18L1156.13,1526.47L1113.86,1533.87L1045.03,1540.5L995.182,1541.8L946.381,1540.94L886.578,1544.33L839.082,1541.73L793.255,1538.38L761.363,1535.53L718.951,1544.28L676.282,1547.1L642.213,1547.46L595.856,1544.8L571.538,1540.83Z" style="fill:rgb(103,46,26);stroke:rgb(103,46,26);stroke-width:24.01px;"/>
        <path d="M2273.87,1443.52C2273.87,1443.52 2266.1,1448.36 2293.82,1460.54C2321.53,1472.73 2318.43,1463.12 2331.92,1449.74C2345.41,1436.35 2352.58,1436.37 2341,1427.79C2329.42,1419.22 2335.11,1406.6 2317.19,1416.03C2299.28,1425.46 2298.24,1408 2295.21,1426.42C2292.18,1444.84 2273.87,1443.52 2273.87,1443.52Z" style="fill:rgb(103,46,26);stroke:rgb(103,46,26);stroke-width:24.01px;"/>
        <path d="M2539.31,1381.3C2539.31,1381.3 2545.02,1402.23 2584.87,1397.09C2624.73,1391.95 2607.62,1399.1 2617.5,1385.57C2627.38,1372.04 2644.21,1362.45 2621.59,1346.38C2598.96,1330.31 2586.9,1343.57 2575.47,1358.19C2564.03,1372.81 2557,1369.29 2557,1369.29L2531.97,1379.4L2539.31,1381.3Z" style="fill:rgb(103,46,26);stroke:rgb(103,46,26);stroke-width:24.01px;"/>
        <path d="M2739.12,1410.25C2739.12,1410.25 2726.79,1421.33 2739.45,1425.62C2752.11,1429.91 2750.43,1433.7 2757.41,1424.54C2764.38,1415.37 2766.72,1414.92 2762.2,1407.95C2757.68,1400.97 2739.12,1410.25 2739.12,1410.25Z" style="fill:rgb(103,46,26);stroke:rgb(103,46,26);stroke-width:24.01px;"/>
        <path d="M1756.23,1486.25C1756.23,1486.25 1775.51,1504.04 1787.85,1499.23C1800.2,1494.42 1814.81,1499.2 1817.39,1490.5C1819.97,1481.8 1801.52,1472.62 1785.21,1477.35C1768.91,1482.08 1756.23,1486.25 1756.23,1486.25Z" style="fill:rgb(103,46,26);stroke:rgb(103,46,26);stroke-width:24.01px;"/>
        <path d="M1720.28,1453.82C1720.28,1453.82 1706.14,1461.28 1721.85,1465.88C1737.56,1470.49 1736.67,1466.14 1736.67,1466.14L1741.58,1452.25L1720.28,1453.82Z" style="fill:rgb(103,46,26);stroke:rgb(103,46,26);stroke-width:24.01px;"/>
        <path d="M1044.55,1410.69L1050.6,1418.18L1063.76,1416.98L1065.33,1406.82L1059.99,1401.6L1044.55,1410.69Z" style="fill:rgb(103,46,26);stroke:rgb(103,46,26);stroke-width:24.01px;"/>
    </g>
    <g id="Layer11" serif:id="Layer1" transform="matrix(0.811847,0,0,0.919943,-245.934,187.024)">
        <g>
            <g transform="matrix(0.906109,0,0,0.906109,209.404,114.576)">
                <g id="Layer5">
                    <ellipse cx="2449.11" cy="1326.52" rx="69.847" ry="67.838" style="fill:rgb(106,60,25);stroke:rgb(106,60,25);stroke-width:21.2px;"/>
                </g>
            </g>
            <g transform="matrix(0.906109,0,0,0.906109,-834.976,157.44)">
                <g id="Layer51" serif:id="Layer5">
                    <ellipse cx="2449.11" cy="1326.52" rx="69.847" ry="67.838" style="fill:rgb(106,60,25);stroke:rgb(106,60,25);stroke-width:21.2px;"/>
                </g>
            </g>
            <g transform="matrix(0.991694,0.128619,-0.128619,0.991694,198.348,-235.883)">
                <g id="Layer6">
                    <path d="M1871.91,1419.7C1871.91,1419.7 1877.52,1434.47 1894.12,1443.54C1918.41,1456.82 1953.56,1455.93 1976.13,1418.3C1980.93,1410.3 1982.9,1401.54 1982.72,1387.93" style="fill:none;stroke:rgb(70,25,9);stroke-width:23.64px;"/>
                </g>
            </g>
            <g id="Layer4">
                <g transform="matrix(0.761594,0,0,0.797389,570.978,237.203)">
                    <ellipse cx="2440.5" cy="1352.74" rx="66.743" ry="63.054" style="fill:rgb(70,25,9);stroke:rgb(70,25,9);stroke-width:24.57px;"/>
                </g>
                <g transform="matrix(0.761594,0,0,0.797389,-474.126,281.309)">
                    <ellipse cx="2440.5" cy="1352.74" rx="66.743" ry="63.054" style="fill:rgb(70,25,9);stroke:rgb(70,25,9);stroke-width:24.57px;"/>
                </g>
            </g>
        </g>
        <path d="M440.778,1542.35C391.471,1527.84 375.308,1478.56 503.868,1452.71C503.868,1452.71 538.331,1451.45 548.764,1419.94C559.196,1388.43 637.843,1320.75 732.382,1382.11C732.382,1382.11 763.927,1396.32 770.104,1375.02C776.281,1353.71 833.55,1316.11 883.124,1351.47C883.124,1351.47 970.688,1347.51 990.324,1319.47C1009.96,1291.44 1044.59,1295.12 1044.59,1295.12C1044.59,1295.12 1078.91,1185.76 1165.87,1233.89C1165.87,1233.89 1195.64,1246.32 1255,1208.54C1314.37,1170.75 1458.32,1159.84 1481.03,1154.91C1503.73,1149.98 1537.14,1118.85 1524.14,1095.65C1511.14,1072.45 1497.59,827.85 1810.28,819.958C1810.28,819.958 1858.63,821.668 1869.46,788.06C1880.28,754.453 1896.73,851.896 1825.41,875.127C1754.09,898.358 1718.75,974.644 1758.86,1026.09C1798.97,1077.54 1880.38,1108.26 1880.38,1108.26C1880.38,1108.26 2103.64,1089.72 2134.91,1116.05C2134.91,1116.05 2187.12,1130.23 2212.68,1151.16C2238.24,1172.1 2263.94,1130.04 2263.94,1130.04C2263.94,1130.04 2399.23,992.671 2562.77,1105.1C2562.77,1105.1 2677.45,1148.92 2724.42,1198.76C2724.42,1198.76 2800.69,1183.35 2821.48,1260.39C2821.48,1260.39 2843.48,1302.4 2921.03,1270.99C2998.57,1239.58 3092.52,1276.07 3097.15,1337.88C3097.15,1337.88 3164.42,1370.69 3148.7,1395.08C3148.7,1395.08 3207.17,1404.23 3214.23,1429.36C3214.23,1429.36 3257.02,1424.39 3253.88,1447.06C3250.74,1469.73 3215.03,1474.2 3169.94,1472.64C3124.86,1471.07 3122.4,1523.07 2947.17,1507.76C2771.95,1492.46 2712.73,1569.17 2478.92,1522.18C2478.92,1522.18 2342.56,1562.02 2256.72,1563.15C2170.87,1564.27 2038.15,1532.27 2022.61,1524.63C2007.07,1516.99 1974.17,1521.12 1856.47,1565.03C1856.47,1565.03 1774.44,1597.32 1655.97,1540.5C1655.97,1540.5 1594.54,1516.74 1503.11,1540.74C1411.68,1564.73 1385.66,1574.72 1160.66,1527.22C1160.66,1527.22 911.443,1557.21 777.998,1534.4C777.998,1534.4 621.612,1555.03 580.8,1546.64C580.8,1546.64 490.086,1556.86 440.778,1542.35Z" style="fill:none;stroke:rgb(70,25,9);stroke-width:31.22px;"/>
    </g>
    <g id="Layer8" transform="matrix(0.811847,0,0,0.919943,-245.934,187.024)">
        <g transform="matrix(1,0,0,1,7.76457,-2.71604)">
            <ellipse cx="2441.33" cy="1299.31" rx="7.161" ry="7.174" style="fill:white;stroke:white;stroke-width:24.01px;"/>
        </g>
        <g transform="matrix(1,0,0,1,-1034.5,41.1892)">
            <ellipse cx="2441.33" cy="1299.31" rx="7.161" ry="7.174" style="fill:white;stroke:white;stroke-width:24.01px;"/>
        </g>
    </g>
</svg>
