<?xml version="1.0" encoding="UTF-8" standalone="no"?>
<!DOCTYPE svg PUBLIC "-//W3C//DTD SVG 1.1//EN" "http://www.w3.org/Graphics/SVG/1.1/DTD/svg11.dtd">
<svg width="100%" height="100%" viewBox="0 0 2481 2481" version="1.1" xmlns="http://www.w3.org/2000/svg" xmlns:xlink="http://www.w3.org/1999/xlink" xml:space="preserve" xmlns:serif="http://www.serif.com/" style="fill-rule:evenodd;clip-rule:evenodd;stroke-linecap:round;stroke-linejoin:round;stroke-miterlimit:1.5;">
    <g id="main-body-colour" serif:id="main body colour" transform="matrix(0.979265,0,0,0.982972,-567.255,17.2594)">
        <g id="Layer16">
            <path d="M895.826,1208.82C895.826,1208.82 1049.06,1025.74 1404.16,1084.19C1759.26,1142.64 1763.92,1182.47 1988.69,1319.86C2213.47,1457.25 1972.24,1666.01 1921.79,1677.6C1871.35,1689.2 1539.32,1859.39 1115.33,1656.24C691.336,1453.09 811.296,1316.32 839.837,1268.61C868.379,1220.9 895.826,1208.82 895.826,1208.82Z" style="fill:white;stroke:white;stroke-width:14.86px;"/>
        </g>
        <g id="Layer17">
            <path d="M1580.9,1092.89C1580.9,1092.89 1398.67,753.358 1589.73,442.511C1780.79,131.664 2012.8,94.623 2191.33,203.311C2369.85,311.999 2430,770.064 2388.47,912.496C2346.94,1054.93 2104.62,1247.51 2006,1239.96C1907.37,1232.41 1929.57,1257.26 1779.44,1184.97C1629.32,1112.68 1613.14,1114.69 1613.14,1114.69L1580.9,1092.89Z" style="fill:white;stroke:white;stroke-width:14.86px;"/>
        </g>
        <g id="Layer18">
            <path d="M1645.07,243.828L1737.77,219.438L1611.16,354.901L1645.07,243.828Z" style="fill:white;stroke:white;stroke-width:14.86px;"/>
        </g>
        <g id="Layer19">
            <path d="M2327.79,268.459C2327.79,268.459 2743.06,427.221 2884.54,500.855C3026.02,574.49 2896.58,641.51 2884.94,683.067C2873.3,724.623 2540.51,651.232 2540.51,651.232C2540.51,651.232 2453.61,677.491 2415.83,465.812L2348.73,327.94L2321.79,280.915L2327.79,268.459Z" style="fill:white;stroke:white;stroke-width:14.86px;"/>
        </g>
        <g id="Layer20">
            <path d="M2456.35,844.132L2680.92,865.921C2680.92,865.921 2722.34,913.811 2627.58,1074.27C2532.81,1234.72 2337.86,1476.71 2337.86,1476.71L2249.15,1516.71L2167.44,1650.86L2094.33,1785.85L1993.11,1867.03L1983.76,1960.74L2021.09,2034.47L2012.89,2170.16L1981.53,2271.78C1981.53,2271.78 1525.86,2476.61 1233.36,2259.59C1233.36,2259.59 1148.92,2146.97 1314.51,1982.87C1314.51,1982.87 867.331,1802.4 860.124,1518.83C860.124,1518.83 1193.07,1859.21 1606.08,1769.92C1606.08,1769.92 2101.48,1798.09 2104.98,1430.1L2042.56,1331.87L2033.46,1321.41C2033.46,1321.41 2308.87,1225.21 2385.07,1040.3C2461.27,855.397 2444.57,904.847 2444.57,904.847L2456.35,844.132Z" style="fill:white;stroke:white;stroke-width:14.86px;"/>
        </g>
    </g>
    <g id="inside-toilet-colour" serif:id="inside toilet colour" transform="matrix(0.979265,0,0,0.982972,-567.255,17.2594)">
        <path d="M1120.66,1359.68C1120.66,1359.68 1415.31,1221.25 1626.9,1365.51C1838.49,1509.76 1747.46,1486.66 1747.46,1486.66C1747.46,1486.66 1696.5,1528.92 1307.21,1476.97L1151.55,1412.67L1120.66,1359.68Z" style="fill:rgb(221,220,220);stroke:rgb(221,220,220);stroke-width:14.86px;"/>
    </g>
    <g id="shadows" transform="matrix(0.979265,0,0,0.982972,-567.255,17.2594)">
        <g id="Layer9">
            <path d="M2199.16,210.961C2199.16,210.961 2643.49,946.764 1913.72,1244.45C1971.25,1278.32 1995.37,1300.63 2014.56,1312.89C2425.28,1136.8 2485.91,789.023 2394.37,471.881C2361.4,357.634 2306.44,330.337 2199.16,210.961Z" style="fill:rgb(190,190,190);stroke:rgb(190,190,190);stroke-width:38.22px;"/>
        </g>
        <g id="Layer10">
            <path d="M2472.52,797.431L2803.86,809.795C2803.86,809.795 2518.01,1535.6 2261.88,1569.92C2261.88,1569.92 2167.16,1815.43 2008.53,1900.57L2018.75,1942.13L2051.2,1929.42C2051.2,1929.42 2085.64,2161.97 2040.8,2231.76L1969.28,2274.26C1969.28,2274.26 2026.34,2068.61 2004.81,2020.36C1989.07,1985.09 1943.12,2039.4 1991.38,1838.91C1991.38,1838.91 1997.35,1809.56 2011.33,1803.28C2034.38,1792.92 2087.71,1777.39 2137.69,1706.3C2164.47,1668.19 2195.91,1612.82 2209.72,1538.61C2213.16,1540.33 2217.47,1497.72 2306.87,1498.11C2306.87,1498.11 2368.32,1453.78 2432.76,1372.12C2471.91,1322.49 2511.7,1260.59 2552.41,1193.04C2592.55,1126.44 2621.76,1055.22 2656.17,976.915C2656.17,976.915 2700.01,895.74 2666.26,873.463C2622.01,844.255 2465.18,850.936 2465.18,850.936L2472.52,797.431Z" style="fill:rgb(190,190,190);stroke:rgb(190,190,190);stroke-width:38.22px;"/>
        </g>
        <g id="Layer11">
            <path d="M1249.11,2283.62C1249.11,2283.62 1219.5,2173.98 1315.08,2085.42C1315.08,2085.42 1342.2,2053.82 1425.06,2061.91C1507.92,2069.99 1710.54,2104.45 1761.76,2026.38C1761.76,2026.38 1627.48,2051.39 1464.94,2026.61C1302.4,2001.83 1310.91,1994.85 1310.91,1994.85C1310.91,1994.85 1222.8,2131.38 1225.68,2164.64C1228.57,2197.9 1225,2254.3 1225,2254.3L1249.11,2283.62Z" style="fill:rgb(190,190,190);stroke:rgb(190,190,190);stroke-width:14.86px;"/>
        </g>
        <g id="Layer12">
            <path d="M984.441,1746.25C984.441,1746.25 948.445,1671.17 946.725,1633.61C946.725,1633.61 1486.79,1991.54 1996.9,1691.34C1996.9,1691.34 2143.57,1596.35 2128.03,1445.68C2128.03,1445.68 2110.44,1365.1 2045.38,1343.58C2045.38,1343.58 2142.61,1483.44 2085.79,1546.17C2028.97,1608.9 2042.74,1701.96 1622.43,1776.22C1622.43,1776.22 1335.6,1782.76 1065.41,1654.05L863.339,1517.65L886.029,1626.29L950.333,1724.37L984.441,1746.25Z" style="fill:rgb(190,190,190);stroke:rgb(190,190,190);stroke-width:14.86px;"/>
        </g>
        <g id="Layer13">
            <path d="M2446,585.078C2446,585.078 2681.14,735.537 2936.46,595.165C2936.46,595.165 2968.89,709.998 2855.49,775.984C2742.09,841.969 2467.02,771.949 2467.02,771.949L2454.66,664.935L2446,585.078" style="fill:rgb(190,190,190);stroke:rgb(190,190,190);stroke-width:14.86px;"/>
        </g>
        <g id="Layer14">
            <path d="M1126.33,1366.31C1126.33,1366.31 1469.2,1234.8 1727.8,1485.09C1727.8,1485.09 1978.46,1401.9 1524.76,1253.23C1524.76,1253.23 1124.14,1155.96 1103.38,1338.4L1115.67,1373.08L1126.33,1366.31Z" style="fill:rgb(190,190,190);stroke:rgb(190,190,190);stroke-width:14.86px;"/>
        </g>
    </g>
    <g id="outline" transform="matrix(0.979265,0,0,0.982972,-567.255,17.2594)">
        <g id="Layer1">
            <path d="M949.088,1148.66C949.088,1148.66 454.959,1452.34 1276.3,1723.66C1575,1822.33 1845.14,1733.67 1959.37,1667.08C2165.27,1547.03 2076.06,1376.27 2076.06,1376.27C2076.06,1376.27 1949.39,1259.16 1741.92,1169.24C1684.34,1144.28 1602.14,1100.48 1531.22,1085.96C1126.79,1003.16 949.088,1148.66 949.088,1148.66Z" style="fill:none;stroke:rgb(78,80,96);stroke-width:38.22px;"/>
        </g>
        <g id="Layer2">
            <path d="M839.32,1478.29C839.32,1478.29 904.64,1981.46 1577.26,2023.97" style="fill:none;stroke:rgb(78,80,96);stroke-width:38.22px;"/>
        </g>
        <g id="Layer3">
            <path d="M1299.52,1982.33C1299.52,1982.33 1152.26,2165.62 1228.28,2277.64C1304.29,2389.66 1851.64,2423 2061.49,2222.09C2061.49,2222.09 2128.95,2109.53 2073.75,1911.84" style="fill:none;stroke:rgb(78,80,96);stroke-width:38.22px;"/>
        </g>
        <g id="Layer4">
            <path d="M2015.1,1914.44C2015.1,1914.44 2201.76,1863.96 2266.45,1582.02C2266.45,1582.02 2361.28,1622.85 2522.43,1381.74C2683.57,1140.64 2823.94,794.657 2823.94,794.657" style="fill:none;stroke:rgb(78,80,96);stroke-width:38.22px;"/>
        </g>
        <g id="Layer5">
            <path d="M1581.49,1100.89C1581.49,1100.89 1488.84,938.469 1504.6,716.832C1521.16,483.715 1651.66,176.193 2005.23,146.275C2077.55,140.155 2165.76,176.136 2202.97,199.006C2202.97,199.006 2345.73,260.483 2409.62,449.9C2503.53,728.339 2480.06,1184.47 2017.08,1318.72" style="fill:none;stroke:rgb(78,80,96);stroke-width:38.22px;"/>
        </g>
        <g id="Layer6">
            <path d="M1577.87,430.871C1571.5,432.459 1611.55,280.281 1637.59,245.814C1660.91,214.94 1814.85,190.679 1815.02,196.38" style="fill:none;stroke:rgb(78,80,96);stroke-width:38.22px;"/>
        </g>
        <g id="Layer7">
            <path d="M2461.06,774.471C2466.46,773.737 2736.51,835.541 2877.46,769.472C2877.46,769.472 2965.68,684.353 2948.03,557.121C2931.18,435.707 2323.19,258.811 2268.43,242.587" style="fill:none;stroke:rgb(78,80,96);stroke-width:38.22px;"/>
        </g>
        <g id="Layer8">
            <path d="M1534.31,1246.18C1531.41,1249.96 1228.98,1157.48 1105.84,1299.28C1069.67,1340.93 1116.64,1387.25 1175.44,1425.63C1330.78,1527.04 1702.56,1577.8 1797.75,1450.44C1825.52,1376.74 1716.05,1297.72 1534.31,1246.18Z" style="fill:none;stroke:rgb(78,80,96);stroke-width:38.22px;"/>
        </g>
    </g>
    <g id="poop" transform="matrix(0.979265,0,0,0.982972,-567.255,17.2594)">
        <g id="Layer26">
            <path d="M1357.94,1268.56C1357.94,1268.56 1380.48,1175.37 1467.45,1219.86L1472.06,1215.35C1472.06,1215.35 1470.08,1129.59 1579.61,1117.19L1667.74,1123.74C1667.74,1123.74 1647.84,1138.3 1628.57,1164.93C1609.29,1191.56 1634.8,1217.75 1634.8,1217.75L1677.32,1252.44C1677.32,1252.44 1710.74,1311.68 1640.75,1325.77L1642.68,1329.76C1642.68,1329.76 1730.9,1401.38 1642.6,1448.72L1644.08,1452.39C1644.08,1452.39 1670.63,1477.28 1664.67,1500.81C1664.67,1500.81 1422.9,1513.9 1350.29,1486.62C1277.67,1459.34 1236.74,1383.94 1246.69,1349.17C1256.64,1314.4 1277.14,1267.73 1330.15,1269.75L1357.94,1268.56Z" style="fill:rgb(135,71,48);stroke:rgb(135,71,48);stroke-width:8.49px;"/>
        </g>
        <g id="Layer25">
            <path d="M1313.44,1471.61C1313.44,1471.61 1257.27,1387.84 1362.3,1350.26L1383.99,1315.61C1383.99,1315.61 1379.72,1274.37 1447.47,1278.02C1447.47,1278.02 1503.81,1281.37 1506.89,1214.15C1509.97,1146.93 1647.57,1142.87 1647.57,1142.87L1664.35,1128.69C1664.35,1128.69 1509.37,1069.12 1467.02,1213.78C1467.02,1213.78 1376.13,1173.81 1359.24,1264.67L1343.04,1265.14C1343.04,1265.14 1243.92,1269.24 1241.8,1367.31C1241.52,1380.32 1244.53,1391.56 1251.46,1404.81C1264.13,1432.29 1284.68,1454.62 1313.44,1471.61Z" style="fill:rgb(158,84,58);stroke:rgb(158,84,58);stroke-width:8.49px;"/>
        </g>
        <g id="Layer21">
            <g transform="matrix(1,0,0,1,204.781,144.629)">
                <g id="Layer24">
                    <ellipse cx="1385.86" cy="1331.74" rx="26.184" ry="26.011" style="fill:rgb(103,46,26);stroke:rgb(103,46,26);stroke-width:12.74px;"/>
                </g>
            </g>
            <path d="M1670.9,1505.52C1670.9,1505.52 1676.62,1468.57 1645.55,1448.68C1645.55,1448.68 1710.28,1432.82 1682.79,1368.51C1679.54,1360.91 1674.01,1352.52 1666.5,1345.14C1666.5,1345.14 1653.96,1333.91 1643.21,1326.6C1643.21,1326.6 1703.99,1326.2 1688.75,1264.35C1686.96,1257.1 1684.66,1252.9 1676.67,1244.83C1676.67,1244.83 1652.39,1230.33 1633.16,1205.69C1613.93,1181.06 1635.85,1158.38 1650.76,1147.44C1665.67,1136.51 1673.39,1119.97 1673.39,1119.97C1673.39,1119.97 1621.92,1115.81 1583.29,1113.79C1533.98,1111.2 1469.02,1148.16 1467.94,1216.34C1467.5,1215.45 1456.85,1205.85 1438.28,1203.7C1407.37,1200.13 1361.63,1210.55 1356.7,1267.21C1356.7,1267.21 1332.85,1257.22 1306.01,1266.63C1271.51,1278.74 1230.64,1316.72 1240.96,1381.45C1240.96,1381.45 1251.77,1434.3 1321.79,1481.17C1391.81,1528.05 1670.9,1505.52 1670.9,1505.52Z" style="fill:none;stroke:rgb(70,25,9);stroke-width:10.62px;"/>
        </g>
        <g transform="matrix(1,0,0,1,-18.0572,1.10252)">
            <g id="Layer241" serif:id="Layer24">
                <ellipse cx="1385.86" cy="1331.74" rx="26.184" ry="26.011" style="fill:rgb(103,46,26);stroke:rgb(103,46,26);stroke-width:12.74px;"/>
            </g>
        </g>
        <g transform="matrix(0.938482,0,0,0.931648,105.727,125.456)">
            <g id="Layer22">
                <ellipse cx="1582.16" cy="1450.18" rx="22.467" ry="22.137" style="fill:rgb(70,25,9);stroke:rgb(70,25,9);stroke-width:11.35px;"/>
            </g>
        </g>
        <g transform="matrix(0.938482,0,0,0.931648,-116.513,-17.6919)">
            <g id="Layer221" serif:id="Layer22">
                <ellipse cx="1582.16" cy="1450.18" rx="22.467" ry="22.137" style="fill:rgb(70,25,9);stroke:rgb(70,25,9);stroke-width:11.35px;"/>
            </g>
        </g>
        <g id="Layer23">
            <path d="M1425.37,1444.38C1425.37,1444.38 1423.73,1454.27 1427.07,1463.11C1431.71,1475.38 1443.86,1490.32 1466.06,1484.58C1471.65,1483.13 1478.68,1479.78 1484.2,1474" style="fill:none;stroke:rgb(70,25,9);stroke-width:12.74px;"/>
        </g>
    </g>
    <g transform="matrix(0.979265,0,0,0.982972,-566.168,7.99858)">
        <g id="Layer27">
            <path d="M1093.8,1339.05C1116.73,1397.81 1159.61,1432.6 1295.84,1486.63C1354.07,1509.72 1426.24,1526.16 1507.15,1526.67C1589.95,1527.19 1705.8,1539.26 1792.75,1459.01" style="fill:none;stroke:rgb(78,80,96);stroke-width:27.6px;"/>
        </g>
    </g>
</svg>
