<?xml version="1.0" encoding="UTF-8" standalone="no"?>
<!DOCTYPE svg PUBLIC "-//W3C//DTD SVG 1.1//EN" "http://www.w3.org/Graphics/SVG/1.1/DTD/svg11.dtd">
<svg width="100%" height="100%" viewBox="0 0 2481 2481" version="1.1" xmlns="http://www.w3.org/2000/svg" xmlns:xlink="http://www.w3.org/1999/xlink" xml:space="preserve" xmlns:serif="http://www.serif.com/" style="fill-rule:evenodd;clip-rule:evenodd;stroke-linecap:round;stroke-linejoin:round;stroke-miterlimit:1.5;">
    <g transform="matrix(1.01614,0,0,1.00972,-575.912,22.1129)">
        <g id="Layer13">
            <path d="M1597.84,1359.93L2586.93,165.168C2586.93,165.168 2643.36,94.561 2696.04,139.782C2748.71,185.002 2737.66,234.628 2665.24,318.443C2592.81,402.259 1735.1,1498.26 1735.1,1498.26L1597.84,1359.93Z" style="fill:rgb(123,91,97);stroke:rgb(123,91,97);stroke-width:14.4px;"/>
        </g>
        <g id="Layer14">
            <path d="M1410.85,1456.06L1495.44,1373.35C1495.44,1373.35 1548.08,1309.87 1624.74,1422.96L1747.31,1525.8C1747.31,1525.8 1826.81,1602 1688.25,1688.99C1688.25,1688.99 1576.44,1524.58 1418.64,1486.06L1410.85,1456.06Z" style="fill:rgb(115,115,115);stroke:rgb(115,115,115);stroke-width:14.4px;"/>
        </g>
        <g id="Layer15">
            <path d="M1012.5,1666.58C1012.5,1666.58 1426.2,1439.7 1581.5,1579.27C1736.79,1718.84 1797.83,1995.56 1701.72,2084.9C1605.6,2174.24 1594.22,2120.32 1594.22,2120.32C1594.22,2120.32 1262.53,1723.91 1034.34,1672.59L1012.5,1666.58Z" style="fill:rgb(238,69,69);stroke:rgb(238,69,69);stroke-width:14.4px;"/>
        </g>
        <g id="Layer16">
            <path d="M870.491,1608.24C882.474,1604.44 1410.22,1775.66 1655.29,2229.3C1305.62,2123.13 1028.62,1898.66 870.491,1608.24Z" style="fill:rgb(171,56,56);stroke:rgb(171,56,56);stroke-width:14.4px;"/>
        </g>
    </g>
    <g transform="matrix(1.01614,0,0,1.00972,-575.912,22.1129)">
        <g id="Layer6">
            <path d="M1652.72,1432.59L2618.9,208.357C2618.9,208.357 2666.25,150.758 2701.19,147.562C2736.14,144.365 2677.64,94.952 2603.16,126.704C2528.68,158.457 1581.42,1375.46 1581.42,1375.46L1652.72,1432.59Z" style="fill:rgb(84,59,64);stroke:rgb(84,59,64);stroke-width:14.4px;"/>
        </g>
        <g id="Layer7">
            <path d="M1408.28,1464.45L1510.72,1523.09L1609.03,1413.65C1609.03,1413.65 1547.5,1357.09 1530.67,1357.79C1513.85,1358.49 1443.08,1413.2 1443.08,1413.2L1408.28,1464.45" style="fill:rgb(61,57,57);stroke:rgb(61,57,57);stroke-width:14.4px;"/>
        </g>
        <g id="Layer8">
            <path d="M1581.33,1565.81L1666.11,1468.41L1687.83,1485.64L1602.47,1584.46L1581.33,1565.81" style="fill:rgb(61,57,57);stroke:rgb(61,57,57);stroke-width:14.4px;"/>
        </g>
        <g id="Layer10">
            <path d="M860.948,1597.94L1159,1734.34C1159,1734.34 1290.96,1456.46 1647.83,1663.75C1647.83,1663.75 1506.57,1355.49 1035.29,1507.14L951.495,1558.22C951.495,1558.22 909.78,1543.28 885.454,1554.06C861.129,1564.85 844.181,1576.03 844.181,1576.03L860.948,1597.94Z" style="fill:rgb(207,31,31);stroke:rgb(207,31,31);stroke-width:14.4px;"/>
        </g>
        <g id="Layer11">
            <path d="M1738.14,1860.58C1738.14,1860.58 1734.94,2018.35 1562.45,2084.76L1647.86,2207.96C1647.86,2207.96 1694.18,2253.01 1713.28,2200.95C1732.38,2148.88 1700.04,2138.71 1700.04,2138.71L1748.2,1989.5L1738.14,1860.58Z" style="fill:rgb(207,31,31);stroke:rgb(207,31,31);stroke-width:14.4px;"/>
        </g>
        <g id="Layer12">
            <path d="M1103.71,1787.6C1103.71,1787.6 1342.12,1933.6 1415.44,2049.66C1273.45,1978.92 1171.9,1890.54 1103.71,1787.6Z" style="fill:rgb(127,33,33);stroke:rgb(127,33,33);stroke-width:14.4px;"/>
        </g>
        <g id="Layer9">
            <path d="M1641.44,1608.82L1718.2,1519.46L1729.96,1527.97L1649.59,1623.45L1641.44,1608.82Z" style="fill:rgb(61,57,57);stroke:rgb(61,57,57);stroke-width:14.4px;"/>
        </g>
    </g>
    <g transform="matrix(1.01614,0,0,1.00972,-575.912,22.1129)">
        <g transform="matrix(1.00434,-0.00530992,-0.00530992,1.0065,0.322867,-0.395256)">
            <path d="M1590.74,1360.2L2572.15,158.75C2572.15,158.75 2635.69,79.773 2702.65,150.146C2702.65,150.146 2752.34,198.026 2713.88,262.241L1742.34,1499.09" style="fill:none;stroke:rgb(57,41,41);stroke-width:45.24px;"/>
        </g>
        <g id="Layer1">
            <path d="M1397.05,1460.03L1486.46,1370.13C1486.46,1370.13 1523.72,1329.81 1578.8,1376.2C1633.87,1422.58 1732.93,1511.96 1732.93,1511.96C1732.93,1511.96 1805.38,1571.66 1754.77,1632.79L1696.88,1697.11" style="fill:none;stroke:rgb(57,41,41);stroke-width:45.25px;"/>
        </g>
        <g id="Layer2">
            <path d="M962.814,1544.62C962.814,1544.62 1264.34,1326.85 1565.62,1564.15C1866.9,1801.47 1708.12,2132.89 1708.12,2132.89" style="fill:none;stroke:rgb(57,41,41);stroke-width:45.25px;"/>
        </g>
        <g id="Layer4">
            <path d="M856.744,1603.31C856.744,1603.31 974.004,1821.07 1205.7,2000.89C1321.08,2090.43 1478.21,2200.3 1668.08,2228.18C1561.69,2074.15 1437.63,1936.86 1319.06,1840.62C1179.32,1727.2 1011.16,1647.07 856.744,1603.31Z" style="fill:none;stroke:rgb(57,41,41);stroke-width:37.02px;"/>
        </g>
        <g transform="matrix(1.06592,0.0135558,-0.0128186,1.00796,-50.1902,-42.6318)">
            <g id="Layer5">
                <path d="M1092.67,1791.8C1092.67,1791.8 1168.5,1957.3 1416.52,2068.31C1340.21,1955.06 1224.35,1856.3 1092.67,1791.8Z" style="fill:none;stroke:rgb(57,41,41);stroke-width:13.88px;"/>
            </g>
        </g>
        <g id="Layer3">
            <path d="M870.131,1617.32C833.439,1599.72 846.481,1576.78 846.481,1576.78C846.481,1576.78 872.695,1524.47 960.761,1560.27C1042.62,1593.55 1337.47,1671.86 1703.88,2145.38C1703.88,2145.38 1747.76,2208.47 1678.22,2232.71C1678.22,2232.71 1656.44,2238.04 1631.71,2182.76" style="fill:none;stroke:rgb(57,41,41);stroke-width:28.79px;"/>
        </g>
    </g>
    <g id="Layer17" transform="matrix(1.01614,0,0,1.00972,-575.912,22.1129)">
        <path d="M1700.51,1842.06C1705.06,1850.84 1686.96,1947.43 1625.79,1996.17L1594.15,1953.12C1630,1942.71 1670.09,1893.19 1700.51,1842.06Z" style="fill:white;stroke:white;stroke-width:14.4px;"/>
    </g>
</svg>
