<?xml version="1.0" encoding="UTF-8" standalone="no"?>
<!DOCTYPE svg PUBLIC "-//W3C//DTD SVG 1.1//EN" "http://www.w3.org/Graphics/SVG/1.1/DTD/svg11.dtd">
<svg width="100%" height="100%" viewBox="0 0 2481 2481" version="1.1" xmlns="http://www.w3.org/2000/svg" xmlns:xlink="http://www.w3.org/1999/xlink" xml:space="preserve" xmlns:serif="http://www.serif.com/" style="fill-rule:evenodd;clip-rule:evenodd;stroke-linecap:round;stroke-linejoin:round;stroke-miterlimit:1.5;">
    <g transform="matrix(0.930453,0,0,1.50866,-523.637,-424.429)">
        <g id="Layer16">
            <ellipse cx="1405.75" cy="748.487" rx="597.41" ry="118.381" style="fill:white;stroke:white;stroke-width:11.64px;"/>
        </g>
    </g>
    <g id="Layer17" transform="matrix(0.930453,0,0,0.924449,-523.637,75.4984)">
        <path d="M808.334,742.108C808.334,742.108 1410.91,1084.26 2003.15,722.248L2003.15,2036.51C2003.15,2036.51 1389.07,2440.56 795.125,2039.37L808.334,742.108Z" style="fill:white;stroke:white;stroke-width:15.72px;"/>
    </g>
    <g id="Layer18" transform="matrix(0.930453,0,0,0.924449,-523.637,75.4984)">
        <path d="M1795.55,516.859C1799.54,514.165 2093.97,522.001 2319.54,648.579C2696.48,860.102 2926.93,704.387 3007.58,628.13L3012.19,1934.25C3012.19,1934.25 2786.22,2170.51 2421.07,1962.99C2055.93,1755.46 2013.24,1835.27 2013.24,1835.27L2013.24,720.003C2013.24,720.003 2003.02,573.111 1816.62,549.576L1795.55,516.859Z" style="fill:white;stroke:white;stroke-width:15.72px;"/>
    </g>
    <g id="Layer15" transform="matrix(0.930453,0,0,0.924449,-523.637,75.4984)">
        <path d="M1211.44,698.379C1211.44,698.379 1424.4,593.854 1589.83,710.298C1589.83,710.298 1506.98,748.827 1360.92,741.078C1214.87,733.329 1229.71,710.298 1229.71,710.298L1211.44,698.379Z" style="fill:rgb(212,212,212);stroke:rgb(164,164,164);stroke-width:15.72px;"/>
    </g>
    <g transform="matrix(0.930453,0,0,0.924449,-523.637,75.4984)">
        <g id="Layer10">
            <path d="M959.463,2116C959.463,2116 895.484,2071.86 908.202,1857.29C920.92,1642.72 910.703,1055.08 910.703,1055.08C907.632,1003.37 941.184,811.645 1036.59,857.368C1114.38,894.652 816.854,765.582 816.854,765.582L795.125,2036.51L915.805,2104.76L959.463,2116" style="fill:rgb(164,164,164);stroke:rgb(164,164,164);stroke-width:15.72px;"/>
        </g>
        <g id="Layer11">
            <path d="M1811.79,508.475C1811.79,508.475 2033.54,491.786 2179.94,588.244L2155.33,1821.55L2029.92,1821.55L2013.24,1810.05L2016.22,732.403C2016.22,732.403 2050.97,600.006 1849.32,543.12C1647.67,486.235 1811.79,508.475 1811.79,508.475Z" style="fill:rgb(164,164,164);stroke:rgb(164,164,164);stroke-width:15.72px;"/>
        </g>
        <g id="Layer12">
            <path d="M2857.29,732.799C2857.29,732.799 2921.41,706.449 2907.86,930.455C2894.31,1154.46 2912.08,1871.61 2912.08,1871.61C2912.08,1871.61 2913.36,1992.36 2824.15,2013.28L2880.56,2012.9L3007.58,1953.79L3007.58,628.13L2938.14,676.228L2857.29,732.799Z" style="fill:rgb(164,164,164);stroke:rgb(164,164,164);stroke-width:15.72px;"/>
        </g>
        <g id="Layer13">
            <path d="M848.916,755.22C848.521,752.181 831.827,710.493 873.705,666.658C918.133,620.155 1033.13,553.346 1240.72,542.899C1525.82,528.55 1796.57,564.321 1910.92,639.601C1966.31,676.064 1961.41,738.732 1951.07,769.664C1919.38,864.457 2160.61,655.232 1899.31,564.477C1638,473.722 1175.53,465.881 955.894,558.685C736.262,651.49 788.178,692.162 807.988,731.722C827.798,771.281 848.916,755.22 848.916,755.22Z" style="fill:rgb(164,164,164);stroke:rgb(164,164,164);stroke-width:15.72px;"/>
        </g>
        <g id="Layer14">
            <path d="M1212.05,704.12C1209.31,703.79 1344.07,638.205 1541.6,686.48C1566.32,692.52 1585.19,693.657 1596.42,710.298L1627.72,681.645C1627.72,681.645 1542.33,618.866 1421.6,631.883C1300.86,644.9 1230.41,659.909 1230.41,659.909L1185.74,693.103L1212.05,704.12Z" style="fill:rgb(164,164,164);stroke:rgb(164,164,164);stroke-width:15.72px;"/>
        </g>
    </g>
    <g transform="matrix(0.930453,0,0,0.924449,-523.637,75.4984)">
        <g transform="matrix(0.824396,0,0,1.09182,132.726,-196.447)">
            <g id="Layer1">
                <ellipse cx="1543.47" cy="810.92" rx="741.23" ry="184.472" style="fill:none;stroke:rgb(43,39,38);stroke-width:55.78px;"/>
            </g>
        </g>
        <g transform="matrix(0.927531,0,0,1,90.4214,-23.2343)">
            <g id="Layer2">
                <ellipse cx="1419.15" cy="709.715" rx="238.259" ry="54.598" style="fill:none;stroke:rgb(43,39,38);stroke-width:34.94px;"/>
            </g>
        </g>
        <g id="Layer3">
            <path d="M795.125,698.379L794.599,2036.51" style="fill:none;stroke:rgb(43,39,38);stroke-width:53.91px;"/>
        </g>
        <g transform="matrix(0.999959,0.00904451,-0.00904451,0.999959,1227.01,-7.2145)">
            <g id="Layer31" serif:id="Layer3">
                <path d="M795.125,698.379L794.599,2036.51" style="fill:none;stroke:rgb(43,39,38);stroke-width:53.91px;"/>
            </g>
        </g>
        <g id="Layer5">
            <path d="M794.374,2039.37C794.374,2039.37 935.479,2149.46 1170.56,2197.79C1251.93,2214.52 1346.15,2220.93 1447.51,2216.81C1610.13,2210.19 1799.25,2161.06 2000.18,2039.6" style="fill:none;stroke:rgb(43,39,38);stroke-width:53.91px;"/>
        </g>
        <g id="Layer6">
            <path d="M1610.46,497.735C1610.46,497.735 1988.05,448.758 2290.87,617.316C2593.68,785.874 2844.79,773.855 3011.67,624.971" style="fill:none;stroke:rgb(43,39,38);stroke-width:53.91px;"/>
        </g>
        <g id="Layer7">
            <path d="M3012.19,628.13L3009.71,1944.08" style="fill:none;stroke:rgb(43,39,38);stroke-width:53.91px;"/>
        </g>
        <g id="Layer8">
            <path d="M2013.24,1834.65C2013.24,1834.65 2132.81,1762.88 2415.35,1955.27C2725.97,2166.78 3007.58,1946.13 3007.58,1946.13" style="fill:none;stroke:rgb(43,39,38);stroke-width:53.91px;"/>
        </g>
        <g>
            <g id="Layer9">
                <path d="M2250.66,609.84L2246.69,719.968" style="fill:none;stroke:rgb(43,39,38);stroke-width:15.72px;"/>
            </g>
            <g id="Layer91" serif:id="Layer9" transform="matrix(1,0,0,1,-3.97482,160.624)">
                <path d="M2250.66,609.84L2246.69,719.968" style="fill:none;stroke:rgb(43,39,38);stroke-width:15.72px;"/>
            </g>
            <g id="Layer92" serif:id="Layer9" transform="matrix(1,0,0,1,-3.97482,338.404)">
                <path d="M2250.66,609.84L2246.69,719.968" style="fill:none;stroke:rgb(43,39,38);stroke-width:15.72px;"/>
            </g>
            <g id="Layer93" serif:id="Layer9" transform="matrix(1,0,0,1,-3.97482,520.19)">
                <path d="M2250.66,609.84L2246.69,719.968" style="fill:none;stroke:rgb(43,39,38);stroke-width:15.72px;"/>
            </g>
            <g id="Layer94" serif:id="Layer9" transform="matrix(1,0,0,1,-7.94965,676.266)">
                <path d="M2250.66,609.84L2246.69,719.968" style="fill:none;stroke:rgb(43,39,38);stroke-width:15.72px;"/>
            </g>
            <g id="Layer95" serif:id="Layer9" transform="matrix(1,0,0,1,-7.94965,844.416)">
                <path d="M2250.66,609.84L2246.69,719.968" style="fill:none;stroke:rgb(43,39,38);stroke-width:15.72px;"/>
            </g>
            <g id="Layer96" serif:id="Layer9" transform="matrix(1,0,0,1,-7.94965,999.372)">
                <path d="M2250.66,609.84L2246.69,719.968" style="fill:none;stroke:rgb(43,39,38);stroke-width:15.72px;"/>
            </g>
            <g id="Layer97" serif:id="Layer9" transform="matrix(0.76515,0,0,0.76515,519.685,1325.59)">
                <path d="M2250.66,609.84L2246.69,719.968" style="fill:none;stroke:rgb(43,39,38);stroke-width:20.55px;"/>
            </g>
        </g>
        <g transform="matrix(1,0,0,1,-1206.11,261.174)">
            <g id="Layer98" serif:id="Layer9">
                <path d="M2250.66,609.84L2246.69,719.968" style="fill:none;stroke:rgb(43,39,38);stroke-width:15.72px;"/>
            </g>
            <g id="Layer99" serif:id="Layer9" transform="matrix(1,0,0,1,-3.97482,160.624)">
                <path d="M2250.66,609.84L2246.69,719.968" style="fill:none;stroke:rgb(43,39,38);stroke-width:15.72px;"/>
            </g>
            <g id="Layer910" serif:id="Layer9" transform="matrix(1,0,0,1,-3.97482,338.404)">
                <path d="M2250.66,609.84L2246.69,719.968" style="fill:none;stroke:rgb(43,39,38);stroke-width:15.72px;"/>
            </g>
            <g id="Layer911" serif:id="Layer9" transform="matrix(1,0,0,1,-3.97482,520.19)">
                <path d="M2250.66,609.84L2246.69,719.968" style="fill:none;stroke:rgb(43,39,38);stroke-width:15.72px;"/>
            </g>
            <g id="Layer912" serif:id="Layer9" transform="matrix(1,0,0,1,-7.94965,676.266)">
                <path d="M2250.66,609.84L2246.69,719.968" style="fill:none;stroke:rgb(43,39,38);stroke-width:15.72px;"/>
            </g>
            <g id="Layer913" serif:id="Layer9" transform="matrix(1,0,0,1,-7.94965,844.416)">
                <path d="M2250.66,609.84L2246.69,719.968" style="fill:none;stroke:rgb(43,39,38);stroke-width:15.72px;"/>
            </g>
            <g id="Layer914" serif:id="Layer9" transform="matrix(1,0,0,1,-7.94965,999.372)">
                <path d="M2250.66,609.84L2246.69,719.968" style="fill:none;stroke:rgb(43,39,38);stroke-width:15.72px;"/>
            </g>
            <g id="Layer915" serif:id="Layer9" transform="matrix(0.76515,0,0,0.76515,519.685,1325.59)">
                <path d="M2250.66,609.84L2246.69,719.968" style="fill:none;stroke:rgb(43,39,38);stroke-width:20.55px;"/>
            </g>
        </g>
    </g>
</svg>
